<?xml version="1.0" encoding="UTF-8" standalone="no"?>
<!DOCTYPE svg PUBLIC "-//W3C//DTD SVG 1.1//EN" "http://www.w3.org/Graphics/SVG/1.1/DTD/svg11.dtd">
<svg width="100%" height="100%" viewBox="0 0 827 473" version="1.1" xmlns="http://www.w3.org/2000/svg" xmlns:xlink="http://www.w3.org/1999/xlink" xml:space="preserve" xmlns:serif="http://www.serif.com/" style="fill-rule:evenodd;clip-rule:evenodd;stroke-linejoin:round;stroke-miterlimit:2;">
    <g id="Support-Text" serif:id="Support Text" opacity="0.75">
        <g transform="matrix(8.72909,0,0,1.66299,-491.875,-121.895)">
            <path d="M148.357,184.52L148.357,199.229C148.357,203.288 147.73,206.583 146.956,206.583L60.456,206.583C59.683,206.583 59.055,203.288 59.055,199.229L59.055,184.52C59.055,180.461 59.683,177.165 60.456,177.165L146.956,177.165C147.73,177.165 148.357,180.461 148.357,184.52Z" style="fill:rgb(97,97,97);"/>
        </g>
        <g transform="matrix(9.79232e-17,1.59921,-1.66299,1.01829e-16,864.831,185.33)">
            <path d="M148.357,184.52L148.357,199.229C148.357,203.288 144.931,206.583 140.71,206.583L66.703,206.583C62.482,206.583 59.055,203.288 59.055,199.229L59.055,184.52C59.055,180.461 62.482,177.165 66.703,177.165L140.71,177.165C144.931,177.165 148.357,180.461 148.357,184.52Z" style="fill:rgb(97,97,97);"/>
        </g>
        <g transform="matrix(1.11439e-16,1.81994,-1.66299,1.01829e-16,865.696,-60.2329)">
            <path d="M148.357,184.52L148.357,199.229C148.357,203.288 145.346,206.583 141.637,206.583L65.775,206.583C62.066,206.583 59.055,203.288 59.055,199.229L59.055,184.52C59.055,180.461 62.066,177.165 65.775,177.165L141.637,177.165C145.346,177.165 148.357,180.461 148.357,184.52Z" style="fill:rgb(97,97,97);"/>
        </g>
        <g transform="matrix(1.02965e-16,1.68155,-1.66299,1.01829e-16,530.844,-46.7556)">
            <path d="M148.357,184.52L148.357,199.229C148.357,203.288 145.098,206.583 141.084,206.583L66.328,206.583C62.314,206.583 59.055,203.288 59.055,199.229L59.055,184.52C59.055,180.461 62.314,177.165 66.328,177.165L141.084,177.165C145.098,177.165 148.357,180.461 148.357,184.52Z" style="fill:rgb(97,97,97);"/>
        </g>
        <g transform="matrix(9.79232e-17,1.59921,-1.66299,1.01829e-16,697.434,-42.1918)">
            <path d="M148.357,184.52L148.357,199.229C148.357,203.288 144.931,206.583 140.71,206.583L66.703,206.583C62.482,206.583 59.055,203.288 59.055,199.229L59.055,184.52C59.055,180.461 62.482,177.165 66.703,177.165L140.71,177.165C144.931,177.165 148.357,180.461 148.357,184.52Z" style="fill:rgb(97,97,97);"/>
        </g>
        <g transform="matrix(9.79232e-17,1.59921,-1.66299,1.01829e-16,697.876,185.33)">
            <path d="M148.357,184.52L148.357,199.229C148.357,203.288 144.931,206.583 140.71,206.583L66.703,206.583C62.482,206.583 59.055,203.288 59.055,199.229L59.055,184.52C59.055,180.461 62.482,177.165 66.703,177.165L140.71,177.165C144.931,177.165 148.357,180.461 148.357,184.52Z" style="fill:rgb(97,97,97);"/>
        </g>
        <g transform="matrix(9.79232e-17,1.59921,-1.66299,1.01829e-16,530.844,184.5)">
            <path d="M148.357,184.52L148.357,199.229C148.357,203.288 144.931,206.583 140.71,206.583L66.703,206.583C62.482,206.583 59.055,203.288 59.055,199.229L59.055,184.52C59.055,180.461 62.482,177.165 66.703,177.165L140.71,177.165C144.931,177.165 148.357,180.461 148.357,184.52Z" style="fill:rgb(97,97,97);"/>
        </g>
        <g transform="matrix(9.79232e-17,1.59921,-1.66299,1.01829e-16,994.539,185.33)">
            <path d="M148.357,184.52L148.357,199.229C148.357,203.288 144.931,206.583 140.71,206.583L66.703,206.583C62.482,206.583 59.055,203.288 59.055,199.229L59.055,184.52C59.055,180.461 62.482,177.165 66.703,177.165L140.71,177.165C144.931,177.165 148.357,180.461 148.357,184.52Z" style="fill:rgb(97,97,97);"/>
        </g>
        <g transform="matrix(1.06602e-16,1.74095,-1.66299,1.01829e-16,994.539,-55.5679)">
            <path d="M148.357,184.52L148.357,199.229C148.357,203.288 145.21,206.583 141.332,206.583L66.08,206.583C62.203,206.583 59.055,203.288 59.055,199.229L59.055,184.52C59.055,180.461 62.203,177.165 66.08,177.165L141.332,177.165C145.21,177.165 148.357,180.461 148.357,184.52Z" style="fill:rgb(97,97,97);"/>
        </g>
        <g transform="matrix(8.82112,0,0,0.692543,-506.394,146.061)">
            <path d="M148.357,184.52L148.357,199.229C148.357,203.288 148.099,206.583 147.78,206.583L59.633,206.583C59.314,206.583 59.055,203.288 59.055,199.229L59.055,184.52C59.055,180.461 59.314,177.165 59.633,177.165L147.78,177.165C148.099,177.165 148.357,180.461 148.357,184.52Z" style="fill:rgb(97,97,97);"/>
        </g>
    </g>
    <g id="Support-Text1" serif:id="Support Text" opacity="0.75">
        <g transform="matrix(8.72909,0,0,1.66299,-491.875,-121.895)">
            <path d="M136.531,177.165L146.956,177.165C147.73,177.165 148.357,180.461 148.357,184.52L148.357,199.229C148.357,203.288 147.73,206.583 146.956,206.583L60.456,206.583C59.683,206.583 59.055,203.288 59.055,199.229L59.055,184.52C59.055,180.461 59.683,177.165 60.456,177.165L77.806,177.165L77.806,112.252C77.806,108.193 78.434,104.898 79.207,104.898L82.009,104.898C82.782,104.898 83.41,108.193 83.41,112.252L83.41,177.165L96.89,177.165L96.89,112.072C96.89,108.013 97.518,104.718 98.291,104.718L101.094,104.718C101.867,104.718 102.495,108.013 102.495,112.072L102.495,177.165L116.166,177.165L116.166,109.062C116.166,105.003 116.794,101.708 117.567,101.708L120.37,101.708C121.143,101.708 121.771,105.003 121.771,109.062L121.771,177.165L130.926,177.165L130.926,109.062C130.926,105.003 131.554,101.708 132.328,101.708L135.13,101.708C135.903,101.708 136.531,105.003 136.531,109.062L136.531,177.165ZM77.825,247.159L58.598,247.159C58.276,247.159 58.015,245.787 58.015,244.097L58.015,237.971C58.015,236.281 58.276,234.909 58.598,234.909L147.675,234.909C147.997,234.909 148.258,236.281 148.258,237.971L148.258,244.097C148.258,245.787 147.997,247.159 147.675,247.159L136.492,247.159C136.517,247.714 136.531,248.292 136.531,248.887L136.531,320.056C136.531,324.115 135.903,327.41 135.13,327.41L132.328,327.41C131.554,327.41 130.926,324.115 130.926,320.056L130.926,248.887C130.926,248.292 130.94,247.714 130.965,247.159L121.633,247.159C121.658,247.714 121.672,248.292 121.672,248.887L121.672,320.056C121.672,324.115 121.044,327.41 120.271,327.41L117.468,327.41C116.695,327.41 116.067,324.115 116.067,320.056L116.067,248.887C116.067,248.292 116.081,247.714 116.106,247.159L102.506,247.159C102.532,247.714 102.545,248.292 102.545,248.887L102.545,320.056C102.545,324.115 101.918,327.41 101.144,327.41L98.342,327.41C97.569,327.41 96.941,324.115 96.941,320.056L96.941,248.887C96.941,248.292 96.954,247.714 96.98,247.159L83.391,247.159C83.404,247.559 83.41,247.97 83.41,248.388L83.41,319.557C83.41,323.616 82.782,326.911 82.009,326.911L79.207,326.911C78.434,326.911 77.806,323.616 77.806,319.557L77.806,248.388C77.806,247.97 77.813,247.559 77.825,247.159Z" style="fill:rgb(97,97,97);"/>
        </g>
    </g>
</svg>
