<?xml version="1.0" encoding="UTF-8" standalone="no"?>
<!DOCTYPE svg PUBLIC "-//W3C//DTD SVG 1.1//EN" "http://www.w3.org/Graphics/SVG/1.1/DTD/svg11.dtd">
<svg width="100%" height="100%" viewBox="0 0 827 473" version="1.1" xmlns="http://www.w3.org/2000/svg" xmlns:xlink="http://www.w3.org/1999/xlink" xml:space="preserve" xmlns:serif="http://www.serif.com/" style="fill-rule:evenodd;clip-rule:evenodd;stroke-linejoin:round;stroke-miterlimit:2;">
    <g transform="matrix(1.00199,0,0,1.08212,60.7938,-36.1051)">
        <path d="M729.532,190.671L729.534,190.791L729.534,191.083C729.534,200.216 726.33,208.662 720.906,215.506C726.33,222.335 729.534,230.766 729.534,239.885C729.534,249.078 726.277,257.574 720.771,264.431C726.277,271.289 729.534,279.785 729.534,288.978C729.534,299.678 725.121,309.432 717.888,316.759C724.749,327.807 726.005,341.638 719.962,354.15C713.415,367.706 699.908,376.379 685.08,378.181C682.028,391.747 671.666,403.575 656.564,408.601C643.196,413.05 629.027,411.201 617.849,404.709C610.071,410.874 599.97,414.597 588.939,414.597C579.01,414.597 569.835,411.581 562.429,406.483C555.023,411.581 545.848,414.597 535.919,414.597C525.99,414.597 516.815,411.581 509.41,406.483C502.003,411.581 492.828,414.597 482.9,414.597C472.971,414.597 463.796,411.581 456.39,406.483C448.984,411.581 439.809,414.597 429.88,414.597C419.951,414.597 410.776,411.581 403.37,406.483C395.964,411.581 386.789,414.597 376.86,414.597C366.931,414.597 357.756,411.581 350.35,406.483C342.944,411.581 333.769,414.597 323.84,414.597C313.911,414.597 304.736,411.581 297.33,406.483C289.924,411.581 280.749,414.597 270.82,414.597C260.891,414.597 251.716,411.581 244.31,406.483C236.904,411.581 227.729,414.597 217.8,414.597C207.871,414.597 198.696,411.581 191.29,406.483C183.884,411.581 174.709,414.597 164.78,414.597C154.851,414.597 145.676,411.581 138.27,406.483C130.864,411.581 121.689,414.597 111.76,414.597C100.413,414.597 90.051,410.657 82.188,404.174C70.535,410.599 55.866,412.037 42.382,406.871C27.559,401.193 17.813,388.932 15.451,375.256C0.725,372.812 -12.332,363.556 -18.184,349.724C-23.452,337.272 -21.714,323.868 -14.737,313.252C-21.595,306.003 -25.752,296.509 -25.752,286.124C-25.752,276.93 -22.495,268.434 -16.989,261.577C-22.495,254.719 -25.752,246.223 -25.752,237.03C-25.752,227.816 -22.48,219.303 -16.953,212.437C-22.837,205.084 -26.125,195.879 -25.634,186.033C-24.891,171.174 -15.715,158.511 -2.591,151.822C-5.075,138.166 -0.076,123.667 12.004,113.899C24.055,104.154 40.194,101.509 54.447,105.583C62.547,95.362 75.612,88.721 90.339,88.721C100.268,88.721 109.443,91.738 116.849,96.835C124.255,91.738 133.43,88.721 143.359,88.721C153.288,88.721 162.463,91.737 169.868,96.835C177.274,91.737 186.449,88.721 196.378,88.721C206.307,88.721 215.482,91.738 222.888,96.835C230.294,91.738 239.469,88.721 249.398,88.721C259.327,88.721 268.502,91.738 275.908,96.835C283.314,91.738 292.489,88.721 302.418,88.721C312.347,88.721 321.522,91.738 328.928,96.835C336.334,91.738 345.509,88.721 355.438,88.721C365.367,88.721 374.542,91.738 381.948,96.835C389.354,91.738 398.529,88.721 408.458,88.721C418.386,88.721 427.562,91.738 434.967,96.835C442.374,91.738 451.549,88.721 461.478,88.721C471.406,88.721 480.582,91.738 487.987,96.835C495.393,91.738 504.568,88.721 514.497,88.721C524.426,88.721 533.601,91.738 541.007,96.835C548.413,91.738 557.588,88.721 567.517,88.721C577.45,88.721 586.628,91.74 594.036,96.841C601.657,91.599 611.14,88.564 621.358,88.739C637.414,89.013 651.335,97.149 658.922,109.103C673.597,106.421 689.393,110.642 700.278,121.553C710.347,131.646 713.923,145.166 711.196,157.69C722.198,165.136 729.388,177.129 729.532,190.671Z" style="fill:rgb(99,92,229);"/>
    </g>
</svg>
