<?xml version="1.0" encoding="UTF-8" standalone="no"?>
<!DOCTYPE svg PUBLIC "-//W3C//DTD SVG 1.1//EN" "http://www.w3.org/Graphics/SVG/1.1/DTD/svg11.dtd">
<svg width="100%" height="100%" viewBox="0 0 709 709" version="1.1" xmlns="http://www.w3.org/2000/svg" xmlns:xlink="http://www.w3.org/1999/xlink" xml:space="preserve" xmlns:serif="http://www.serif.com/" style="fill-rule:evenodd;clip-rule:evenodd;stroke-linejoin:round;stroke-miterlimit:2;">
    <g id="path6" transform="matrix(0.186971,0,0,0.186971,167.36,166.533)">
        <path d="M988.311,1276.84C877.604,1278.06 766.897,1279.27 656.189,1280.49C697.38,1156.93 738.571,1033.36 779.762,909.798C785.165,889.368 803.993,828.821 863.183,781.542C927.554,730.121 997.328,728.206 1017.51,728.368C1126.28,729.064 1235.04,729.755 1343.81,730.451C1299.69,857.662 1255.58,984.879 1211.45,1112.09C1205.35,1131.52 1185.08,1187.21 1128.03,1229.92C1069.45,1273.79 1008.45,1276.72 988.311,1276.84Z" style="fill:rgb(73,193,241);"/>
    </g>
    <g id="g4" transform="matrix(0.186971,0,0,0.186971,167.36,166.533)">
        <path id="path2" d="M1623.83,461.993C1282.99,466.79 1026.88,471.215 899.655,469.335C878.63,469.023 827.845,468.675 776.088,497.486C685.163,548.097 663.622,644.329 660.35,660.155C621.176,779.706 581.996,899.256 542.823,1018.81C525.569,1069.84 475.306,1194.66 359.826,1245.6C321.181,1262.65 279.113,1269.71 255.032,1273.75C174.859,1287.21 106.982,1281.79 61.607,1274.8C164.491,957.81 267.369,640.818 370.253,323.831C392.923,288.325 424.856,247.753 469.529,210.176C613.431,89.137 785.363,86.79 845.226,88.813C1228.55,88.813 1611.87,88.819 1995.19,88.819C1993.16,116.04 1978.86,273.323 1844.14,379.095C1756.26,448.101 1662.56,459.508 1623.83,461.993Z" style="fill:rgb(26,101,175);"/>
    </g>
    <g id="g10" transform="matrix(0.186971,0,0,0.186971,167.36,166.533)">
        <path id="path8" d="M376.174,1546.86C717.013,1542.06 973.116,1537.63 1100.35,1539.51C1121.37,1539.83 1172.15,1540.17 1223.91,1511.36C1314.84,1460.75 1336.38,1364.52 1339.65,1348.69C1378.82,1229.14 1418,1109.59 1457.18,990.041C1474.43,939.01 1524.69,814.188 1640.17,763.247C1678.82,746.197 1720.89,739.136 1744.97,735.096C1825.14,721.642 1893.02,727.057 1938.39,734.051C1835.51,1051.04 1732.63,1368.03 1629.75,1685.02C1607.08,1720.52 1575.14,1761.09 1530.47,1798.67C1386.57,1919.71 1214.64,1922.06 1154.77,1920.04C771.453,1920.04 388.127,1920.03 4.806,1920.03C6.835,1892.81 21.142,1735.53 155.858,1629.75C243.74,1560.75 337.438,1549.34 376.174,1546.86Z" style="fill:rgb(26,101,175);"/>
    </g>
</svg>
