<?xml version="1.0" encoding="UTF-8" standalone="no"?>
<!DOCTYPE svg PUBLIC "-//W3C//DTD SVG 1.1//EN" "http://www.w3.org/Graphics/SVG/1.1/DTD/svg11.dtd">
<svg width="100%" height="100%" viewBox="0 0 827 473" version="1.1" xmlns="http://www.w3.org/2000/svg" xmlns:xlink="http://www.w3.org/1999/xlink" xml:space="preserve" xmlns:serif="http://www.serif.com/" style="fill-rule:evenodd;clip-rule:evenodd;stroke-linejoin:round;stroke-miterlimit:2;">
    <g transform="matrix(0.907634,0,0,0.907634,96.7077,172.729)">
        <path d="M0,128.2L43,10.6C44,7.8 46.2,5.3 49.6,3.2C53.1,1.1 57.1,-0.1 61.1,0L73.2,0L26.4,128.2L0,128.2ZM92.1,13.4C93.4,9.6 95.9,6.2 99.1,3.7C102.3,1.3 105.3,0 108.3,0L218.9,0L214.7,11.4C213.4,15.2 210.9,18.6 207.7,21.1C204.5,23.5 201.5,24.8 198.5,24.8L170.7,24.8C168.8,24.7 166.9,25.2 165.2,26.2C163.8,27 162.6,28.1 161.5,29.3C160.6,30.3 159.9,31.4 159.4,32.6C159,33.6 158.7,34.3 158.6,34.5L124.2,128.3L97.8,128.3L135.7,24.8L87.9,24.8L92.1,13.4ZM249,33L306.2,33C304.6,37.5 302.6,41.7 300,45.6C298.3,48.2 296.1,50.3 293.4,51.8C291,53 288.4,53.7 285.7,53.8C282.9,53.9 279.7,54 276.2,54L245.6,54C243,54 241.4,55 240.7,57.1L236,70L293.5,69.6L280.3,107.2C279.2,110.5 278.1,113.5 277.1,116.1C276.1,118.6 274.6,120.9 272.6,122.7C270.3,124.7 267.5,126.1 264.5,126.8C259.9,127.9 255.3,128.4 250.6,128.3L193.3,128.3C194.9,123.8 196.9,119.6 199.5,115.7C201.2,113.1 203.4,111 206.1,109.5C208.5,108.3 211.1,107.6 213.8,107.5C216.6,107.4 219.8,107.3 223.3,107.3L250.6,107.3C252.4,107.3 254.1,107.1 255.8,106.7C257.4,106.4 258.7,105.2 259.2,103.6L263.6,91L206.3,91L219.3,54.2C220.4,50.9 221.5,47.9 222.5,45.3C223.5,42.8 225,40.5 226.9,38.7C229.2,36.7 231.9,35.3 234.9,34.6C239.5,33.3 244.2,32.8 249,33ZM289.6,128.2L315.5,54C316.6,50.7 317.7,47.7 318.7,45.1C319.7,42.6 321.2,40.3 323.1,38.5C325.4,36.5 328.1,35.1 331.1,34.4C335.7,33.3 340.4,32.8 345.2,32.9L402.2,32.9C400.7,37.3 398.6,41.5 396,45.4C394.3,47.9 392,50.1 389.4,51.6C387,52.9 384.4,53.6 381.7,53.7C378.9,53.8 375.7,53.9 372.2,53.9L342.9,53.9C341.5,53.9 340.1,54.4 339,55.3C337.7,56.2 336.7,57.5 336.2,59.1L319.5,107.1L377.4,107.1C375.8,111.6 373.8,115.8 371.2,119.7C369.5,122.3 367.3,124.4 364.6,125.9C362.2,127.1 359.6,127.8 356.9,127.9C354.1,128 350.9,128.1 347.4,128.1L289.6,128.2ZM385.6,128.2L411.6,54C412.7,50.7 413.8,47.7 414.8,45.1C415.7,42.6 417.2,40.3 419.2,38.5C421.5,36.5 424.2,35.1 427.2,34.4C431.8,33.3 436.6,32.8 441.3,32.9L498.5,32.9L471.6,107.1C470.4,110.4 469.2,113.4 468.2,115.9C467.2,118.4 465.7,120.6 463.8,122.5C461.6,124.5 459,125.9 456.1,126.7C451.8,127.8 447.3,128.3 442.8,128.2L385.6,128.2ZM415.3,107.2L442.4,107.2C444.2,107.2 446,106.8 447.7,106.1C449.3,105.4 450.5,103.9 451,102.3L468.4,54L438,54C435.6,53.9 433.4,55.4 432.7,57.7L415.3,107.2ZM471,160.5L508.4,54C509.5,50.7 510.6,47.7 511.6,45.1C512.6,42.6 514.1,40.3 516,38.5C518.3,36.5 521,35.1 524,34.4C528.6,33.3 533.4,32.8 538.1,32.9L595.3,32.9L568.4,107.1C567.2,110.4 566.1,113.4 565,115.9C564,118.4 562.5,120.6 560.6,122.5C558.4,124.5 555.8,125.9 552.9,126.7C548.6,127.8 544.1,128.3 539.6,128.2L504.8,128.2L493.4,160.5L471,160.5ZM539.1,107.2C540.9,107.2 542.7,106.8 544.4,106.1C546,105.3 547.2,103.9 547.7,102.3L565.1,54L534.7,54C532.3,53.9 530.1,55.4 529.4,57.7L512,107.2L539.1,107.2ZM647.8,90.9L619.4,90.9C617.6,90.8 615.8,91.6 614.5,92.9C613.2,94.3 612.2,95.9 611.7,97.7L608.4,107.2L666.3,107.2C664.7,111.7 662.7,115.9 660.1,119.8C658.4,122.4 656.2,124.5 653.5,126C651.1,127.2 648.5,127.9 645.8,128C643,128.1 639.8,128.2 636.3,128.2L578.8,128.2L604.5,54C605.6,50.7 606.7,47.7 607.7,45.1C608.7,42.6 610.2,40.3 612.1,38.5C614.4,36.5 617.1,35.1 620.1,34.4C624.7,33.3 629.5,32.8 634.2,32.9L691.2,32.9L677.8,69.8C676.6,73.1 675.4,76.1 674.4,78.7C673.4,81.2 671.9,83.5 669.9,85.3C667.6,87.3 664.8,88.7 661.8,89.4C657.3,90.5 652.5,91 647.8,90.9ZM621.4,69.8L648.5,69.8C650.2,69.8 651.8,69.7 653.5,69.4C655.1,69.2 656.4,68 656.8,66.5L661.1,54L631.8,54C630.4,54 629,54.5 627.9,55.4C626.6,56.3 625.6,57.6 625.1,59.2L621.4,69.8Z" style="fill-rule:nonzero;"/>
    </g>
</svg>
