<?xml version="1.0" encoding="UTF-8" standalone="no"?>
<!DOCTYPE svg PUBLIC "-//W3C//DTD SVG 1.1//EN" "http://www.w3.org/Graphics/SVG/1.1/DTD/svg11.dtd">
<svg width="100%" height="100%" viewBox="0 0 709 709" version="1.1" xmlns="http://www.w3.org/2000/svg" xmlns:xlink="http://www.w3.org/1999/xlink" xml:space="preserve" xmlns:serif="http://www.serif.com/" style="fill-rule:evenodd;clip-rule:evenodd;stroke-linejoin:round;stroke-miterlimit:2;">
    <g transform="matrix(1.25316,0,0,1.2,-29.7518,-57.874)">
        <g id="Support-Parts" serif:id="Support Parts">
            <path d="M206.016,259.843L85.004,259.843C77.201,259.843 70.866,253.227 70.866,245.079L70.866,215.551C70.866,207.403 77.201,200.787 85.004,200.787L254.178,200.787L254.178,124.568C254.178,109.596 265.817,97.441 280.154,97.441L332.107,97.441C346.444,97.441 358.084,109.596 358.084,124.568L358.084,200.787L523.264,200.787C531.067,200.787 537.402,207.403 537.402,215.551L537.402,245.079C537.402,253.227 531.067,259.843 523.264,259.843L358.084,259.843L358.084,271.898L446.497,301.299L408.117,427.165L524.076,427.165C531.878,427.165 538.213,433.781 538.213,441.929L538.213,471.457C538.213,479.605 531.878,486.22 524.076,486.22L358.084,486.22L358.084,572.282C358.084,587.254 346.444,599.409 332.107,599.409L280.154,599.409C265.817,599.409 254.178,587.254 254.178,572.282L254.178,486.22L85.815,486.22C78.013,486.22 71.678,479.605 71.678,471.457L71.678,441.929C71.678,433.781 78.013,427.165 85.815,427.165L254.178,427.165L254.178,413.916L167.795,385.19L206.016,259.843Z" style="fill:rgb(33,145,17);"/>
        </g>
    </g>
</svg>
