<?xml version="1.0" encoding="UTF-8" standalone="no"?>
<!DOCTYPE svg PUBLIC "-//W3C//DTD SVG 1.1//EN" "http://www.w3.org/Graphics/SVG/1.1/DTD/svg11.dtd">
<svg width="100%" height="100%" viewBox="0 0 709 709" version="1.1" xmlns="http://www.w3.org/2000/svg" xmlns:xlink="http://www.w3.org/1999/xlink" xml:space="preserve" xmlns:serif="http://www.serif.com/" style="fill-rule:evenodd;clip-rule:evenodd;stroke-linejoin:round;stroke-miterlimit:2;">
    <g id="Bse-inner" serif:id="Bse inner" transform="matrix(1.66667,0,0,1.66667,-4.92126,78.7402)">
        <path d="M375.488,119.861C379.701,124.336 382.283,130.363 382.283,136.989C382.283,145.956 377.552,153.827 370.452,158.239C377.552,162.651 382.283,170.522 382.283,179.489C382.283,188.456 377.552,196.327 370.452,200.739C377.552,205.151 382.283,213.022 382.283,221.989C382.283,232.006 376.38,240.655 367.865,244.643C376.006,251.519 379.123,263.146 374.76,273.474C370.321,283.984 359.517,289.879 348.724,288.57C351.865,298.969 347.925,310.615 338.348,316.799C328.758,322.992 316.5,321.779 308.315,314.61C305.119,324.736 295.645,332.087 284.468,332.087C275.501,332.087 267.63,327.355 263.218,320.255C258.806,327.355 250.935,332.087 241.968,332.087C233.001,332.087 225.13,327.355 220.718,320.255C216.306,327.355 208.435,332.087 199.468,332.087C190.501,332.087 182.63,327.355 178.218,320.255C173.805,327.355 165.935,332.087 156.968,332.087C146.8,332.087 138.041,326.003 134.137,317.281C127.049,325.325 115.271,328.174 105.014,323.503C94.633,318.775 89.039,307.816 90.643,297.065C80.161,299.92 68.626,295.661 62.707,285.918C56.785,276.168 58.327,263.96 65.703,255.974C55.884,252.601 48.819,243.281 48.819,232.323C48.819,223.356 53.55,215.485 60.65,211.073C53.55,206.661 48.819,198.79 48.819,189.823C48.819,180.856 53.55,172.985 60.651,168.573C53.55,164.16 48.819,156.29 48.819,147.322C48.819,138.355 53.55,130.484 60.651,126.072C53.55,121.66 48.819,113.789 48.819,104.822C48.819,94.491 55.099,85.616 64.046,81.808C56.121,74.509 53.556,62.598 58.529,52.43C63.541,42.186 74.648,36.897 85.349,38.794C82.782,28.238 87.356,16.823 97.259,11.173C107.153,5.529 119.294,7.393 127.076,14.958C130.602,5.425 139.779,-1.378 150.531,-1.378C159.498,-1.378 167.369,3.353 171.781,10.454C176.194,3.353 184.065,-1.378 193.032,-1.378C201.999,-1.378 209.87,3.353 214.282,10.454C218.694,3.353 226.565,-1.378 235.532,-1.378C244.499,-1.378 252.37,3.353 256.782,10.454C261.194,3.353 269.065,-1.378 278.032,-1.378C288.538,-1.378 297.539,5.116 301.236,14.306C308.746,6.523 320.769,4.255 330.829,9.525C340.93,14.816 345.911,26.062 343.721,36.705C354.346,34.428 365.632,39.314 371.007,49.371C374.462,55.833 374.784,63.14 372.505,69.545C372.007,70.943 371.385,72.299 370.645,73.593C377.524,78.004 382.087,85.717 382.087,94.488L382.087,94.599C382.087,103.566 377.552,111.326 370.452,115.738C372.306,116.891 373.999,118.279 375.488,119.861Z" style="fill:rgb(52,247,255);"/>
    </g>
</svg>
