<?xml version="1.0" encoding="UTF-8" standalone="no"?><!DOCTYPE svg PUBLIC "-//W3C//DTD SVG 1.1//EN" "http://www.w3.org/Graphics/SVG/1.1/DTD/svg11.dtd"><svg width="100%" height="100%" viewBox="0 0 156 156" version="1.1" xmlns="http://www.w3.org/2000/svg" xmlns:xlink="http://www.w3.org/1999/xlink" xml:space="preserve" xmlns:serif="http://www.serif.com/" style="fill-rule:evenodd;clip-rule:evenodd;stroke-linejoin:round;stroke-miterlimit:2;"><path d="M155.307,49.348c0.2,-0.055 -0.069,1.811 -0.326,3.365c-0.182,1.096 -0.357,2.037 -0.357,2.037l-1.178,2.931l0.408,0.788l1.138,3.819l0.394,4.059l-0.716,5.442l-1.255,3.058l1.255,3.057l0.716,5.443l-0.716,5.442l-1.255,3.058l1.255,3.058l0.716,5.442l-0.889,6.051l-2.259,4.872l0.313,0.744l0.559,6.572l-0.52,3.35l-1.08,3.285l-1.635,3.115l-2.085,2.747l-5.222,4.207l-1.187,0.447l-0.234,1.237l-3.241,5.865l-2.343,2.526l-2.784,2.147l-3.106,1.656l-3.272,1.097l-6.689,0.537l-1.206,-0.293l-0.708,0.721l-5.823,3.055l-3.279,0.819l-3.436,0.282l-5.442,-0.716l-3.058,-1.255l-3.058,1.255l-5.442,0.716l-5.443,-0.716l-3.057,-1.255l-3.058,1.255l-5.442,0.716l-5.443,-0.716l-3.058,-1.255l-3.057,1.255l-5.443,0.716l-6.138,-0.915l-5.158,-2.432l-0.803,0.315l-6.617,0.396l-3.353,-0.612l-3.271,-1.175l-3.068,-1.719l-2.687,-2.16l-4.062,-5.335l-0.413,-1.197l-1.23,-0.267l-5.775,-3.402l-2.461,-2.412l-2.069,-2.842l-1.569,-3.148l-1.006,-3.297l-0.356,-6.697l0.31,-1.14l-0.529,-0.534l-2.945,-5.742l-1.059,-6.591l0.715,-5.442l1.256,-3.058l-1.256,-3.058l-0.715,-5.442l0.715,-5.442l1.256,-3.058l-1.256,-3.058l-0.715,-5.442l0.715,-5.442l1.256,-3.058l-1.256,-3.058l-0.715,-5.442l0.944,-6.232l2.621,-5.462l-0.307,-0.844l-0.228,-6.652l0.704,-3.349l1.269,-3.251l1.803,-3.019l2.233,-2.627l5.444,-3.912l1.205,-0.379l0.302,-1.224l3.559,-5.679l2.479,-2.394l2.898,-1.99l3.185,-1.481l3.319,-0.915l6.694,-0.176l1.061,0.319l0.362,-0.349l5.664,-2.843l6.474,-1.021l5.442,0.715l3.058,1.256l3.058,-1.256l5.442,-0.715l5.442,0.715l3.058,1.256l3.058,-1.256l5.442,-0.715l5.442,0.715l3.058,1.256l3.058,-1.256l5.442,-0.715l6.333,0.975l5.568,2.724l0.142,0.131l0.938,-0.316l6.677,-0.055l3.339,0.796l3.226,1.362l2.968,1.885l2.563,2.304l3.761,5.549l0.346,1.214l1.215,0.335l5.58,3.714l2.325,2.544l1.911,2.952l1.686,4.175l0.748,4.327l-0.128,3.481l0.768,1.046l1.963,4.855l0.677,3.754l0.016,1.596Zm-13.032,10.855c-0.088,-0.112 -0.105,-0.136 -0.26,-0.318c-0.112,-0.133 -0.228,-0.263 -0.347,-0.39c-0.596,-0.632 -1.273,-1.188 -2.015,-1.648c0.44,-0.274 0.855,-0.579 1.242,-0.913c-0,0 0.186,-0.162 0.31,-0.279c1.932,-1.814 3.102,-4.383 3.102,-7.264l0,-0.045c0,-3.508 -1.825,-6.593 -4.576,-8.358c0.296,-0.517 0.544,-1.059 0.743,-1.619c0.912,-2.562 0.783,-5.485 -0.599,-8.07c-2.15,-4.022 -6.664,-5.977 -10.914,-5.066c0.876,-4.257 -1.117,-8.755 -5.157,-10.872c-4.024,-2.108 -8.833,-1.2 -11.837,1.912c-1.479,-3.675 -5.079,-6.273 -9.282,-6.273c-3.586,-0 -6.735,1.893 -8.5,4.733c-1.765,-2.84 -4.913,-4.733 -8.5,-4.733c-3.587,-0 -6.735,1.893 -8.5,4.733c-1.765,-2.84 -4.913,-4.733 -8.5,-4.733c-3.587,-0 -6.735,1.893 -8.5,4.733c-1.765,-2.84 -4.913,-4.733 -8.5,-4.733c-4.301,-0 -7.972,2.721 -9.382,6.535c-3.113,-3.027 -7.969,-3.772 -11.927,-1.515c-3.961,2.26 -5.791,6.826 -4.764,11.049c-4.28,-0.759 -8.723,1.356 -10.728,5.454c-1.989,4.067 -0.963,8.832 2.207,11.751c-3.579,1.523 -6.091,5.074 -6.091,9.206c0,3.587 1.893,6.735 4.733,8.5c-2.84,1.765 -4.733,4.913 -4.733,8.5c-0,3.587 1.893,6.735 4.733,8.5c-2.84,1.765 -4.733,4.913 -4.733,8.5c-0,3.587 1.893,6.735 4.733,8.5c-2.84,1.765 -4.733,4.913 -4.733,8.5c-0,4.383 2.826,8.112 6.754,9.461c-2.951,3.194 -3.568,8.078 -1.199,11.977c2.368,3.898 6.982,5.601 11.175,4.459c-0.642,4.301 1.596,8.684 5.748,10.575c4.103,1.869 8.814,0.729 11.649,-2.489c1.562,3.489 5.065,5.923 9.132,5.923c3.587,-0 6.736,-1.893 8.5,-4.733c1.765,2.84 4.914,4.733 8.501,4.733c3.586,-0 6.735,-1.893 8.5,-4.733c1.764,2.84 4.913,4.733 8.5,4.733c3.587,-0 6.735,-1.893 8.5,-4.733c1.765,2.84 4.913,4.733 8.5,4.733c4.47,-0 8.26,-2.94 9.538,-6.991c3.274,2.868 8.178,3.353 12.014,0.876c3.83,-2.474 5.406,-7.132 4.15,-11.292c4.317,0.524 8.639,-1.834 10.415,-6.038c1.745,-4.131 0.498,-8.782 -2.759,-11.533c3.406,-1.595 5.768,-5.054 5.768,-9.061c-0,-3.587 -1.893,-6.735 -4.733,-8.5c2.84,-1.765 4.733,-4.913 4.733,-8.5c-0,-3.587 -1.893,-6.735 -4.733,-8.5c2.84,-1.765 4.733,-4.914 4.733,-8.5c-0,-2.316 -0.789,-4.448 -2.111,-6.144Z" style="fill:#2452d3;"/><g id="Icon"><g id="g14"><g id="g12"><g id="g4"><path id="path2" d="M105.686,53.352c-15.295,0.216 -26.787,0.414 -32.496,0.33c-0.943,-0.014 -3.222,-0.03 -5.545,1.263c-4.08,2.271 -5.046,6.589 -5.193,7.3c-1.758,5.364 -3.516,10.729 -5.274,16.093c-0.774,2.29 -3.03,7.891 -8.212,10.177c-1.734,0.765 -3.621,1.082 -4.702,1.263c-3.598,0.604 -6.643,0.361 -8.68,0.047c4.617,-14.224 9.234,-28.448 13.85,-42.672c1.018,-1.594 2.451,-3.414 4.455,-5.1c6.457,-5.432 14.173,-5.537 16.859,-5.446c17.2,-0 34.401,0 51.602,0c-0.091,1.222 -0.733,8.279 -6.778,13.026c-3.943,3.096 -8.148,3.608 -9.886,3.719Z" style="fill:#1a65af;"/></g><path id="path6" d="M77.168,89.917c-4.967,0.055 -9.935,0.109 -14.903,0.164c1.848,-5.545 3.697,-11.09 5.545,-16.634c0.243,-0.917 1.088,-3.634 3.744,-5.755c2.888,-2.308 6.019,-2.394 6.925,-2.387c4.88,0.032 9.761,0.063 14.642,0.094c-1.98,5.708 -3.96,11.417 -5.939,17.125c-0.274,0.872 -1.184,3.371 -3.744,5.288c-2.629,1.968 -5.366,2.099 -6.27,2.105Z" style="fill:#49c1f1;"/><g id="g10"><path id="path8" d="M49.7,102.033c15.294,-0.215 26.787,-0.413 32.496,-0.329c0.943,0.014 3.222,0.03 5.544,-1.263c4.081,-2.271 5.047,-6.59 5.194,-7.3c1.758,-5.364 3.516,-10.729 5.274,-16.093c0.774,-2.29 3.029,-7.892 8.211,-10.177c1.735,-0.765 3.622,-1.082 4.703,-1.264c3.597,-0.603 6.643,-0.36 8.679,-0.047c-4.616,14.225 -9.233,28.449 -13.85,42.673c-1.017,1.593 -2.45,3.414 -4.454,5.1c-6.458,5.432 -14.173,5.537 -16.859,5.446c-17.201,0 -34.402,-0 -51.602,-0c0.091,-1.222 0.733,-8.279 6.778,-13.026c3.943,-3.096 8.148,-3.608 9.886,-3.72Z" style="fill:#1a65af;"/></g></g></g></g></svg>